<svg width="200" height="200" viewBox="0 0 200 200" fill="none" xmlns="http://www.w3.org/2000/svg">
<path d="M119.751 122.325L162.051 80.0252L154.976 72.9502L117.501 110.425C118.801 114.3 119.526 118.275 119.751 122.325V122.325Z" fill="#D82828"/>
<path d="M106.626 92.7997C107.826 93.9997 108.926 95.2497 109.951 96.5497L179.651 26.8497L172.576 19.7747L102.876 89.4747C104.176 90.4997 105.426 91.5997 106.626 92.7997V92.7997Z" fill="#D82828"/>
<path d="M89.025 81.9499L126.5 44.4749L119.425 37.3999L77.125 79.6999C81.15 79.9249 85.15 80.6749 89.025 81.9499Z" fill="#D82828"/>
<path d="M74.7248 179.975C60.5748 179.975 46.4248 174.6 35.6498 163.825C14.0998 142.275 14.0998 107.225 35.6498 85.6747L74.4998 46.8247L81.5748 53.8997L42.7248 92.7497C25.0748 110.4 25.0748 139.125 42.7248 156.775C60.3748 174.425 89.0998 174.425 106.75 156.775L145.6 117.925L152.675 125L113.825 163.85C103.05 174.625 88.8998 180 74.7498 180L74.7248 179.975Z" fill="#D82828"/>
<path d="M74.7242 155.075C58.3742 155.075 45.0742 141.775 45.0742 125.425H55.0742C55.0742 136.25 63.8992 145.075 74.7242 145.075V155.075Z" fill="#D82828"/>
</svg>
